# xmcd
# 
# Track frame offsets:
#     150
#     16869
#     33904
#     53630
#     73430
#     90128
#     110176
#     128308
#     146879
#     166058
#     182166
#     203144
#     222902
#     237908
#     255096
#     273135
#     287691
#     304433
#     321917
#     341045
# 
# Disc length: 4778
# 
# Revision: 0
# Processed by: cddbd v1.5.2PL0 Copyright (c) Steve Scherf et al.
# Submitted via: fre:ac v1.0.31
# 
DISCID=1f12a814
DTITLE=Various Artist - NAJLEPSZE HITY DLA CIEBIE POP BALLADS
DYEAR=0
DGENRE=
TTITLE0=Toni Braxton - Un-Break My Heart
TTITLE1=Maroon 5 - She Will Be Loved
TTITLE2=Leona Lewis - Bleeding Love
TTITLE3=Robbie Williams - Angels
TTITLE4=Natalie Imbruglia - Torn
TTITLE5=Zucchero feat. Paul Young - Suenza Una Donna
TTITLE6=The Cranberries - Ode To My Family
TTITLE7=Ronan Keating - When You Say Nothing At All
TTITLE8=Joan Osborne - One Of Us
TTITLE9=Duran Duran - Come Undone
TTITLE10=Sinead O'Connor - Nothing Compares 2 U
TTITLE11=Aha - Cyring in the Rain
TTITLE12=Shakespears Sister - Stay
TTITLE13=Wet Wet Wet - Love Is All Around
TTITLE14=Fiona Apple - Criminal
TTITLE15=Jamie Cullum - Everlasting Love
TTITLE16=The Corrs - What Can I Do
TTITLE17=Hoobastank - The Reason
TTITLE18=Lisa Gerrard,  Hans Zimmer - Now We Are Free
TTITLE19=3 Doors Down - Here Without You
EXTD=
EXTT0=
EXTT1=
EXTT2=
EXTT3=
EXTT4=
EXTT5=
EXTT6=
EXTT7=
EXTT8=
EXTT9=
EXTT10=
EXTT11=
EXTT12=
EXTT13=
EXTT14=
EXTT15=
EXTT16=
EXTT17=
EXTT18=
EXTT19=
PLAYORDER=
